<?xml version="1.0" encoding="UTF-8"?>
<svg xmlns="http://www.w3.org/2000/svg" xmlns:xlink="http://www.w3.org/1999/xlink" width="143.095pt" height="107.32pt" viewBox="0 0 143.095 107.32">
<defs>
<g>
<g id="glyph-0-0">
<path d="M 1.894531 -3.957031 C 1.59375 -3.957031 1.367188 -3.808594 1.210938 -3.511719 C 1.054688 -3.214844 0.984375 -2.765625 0.984375 -2.171875 C 0.984375 -1.574219 1.054688 -1.125 1.210938 -0.828125 C 1.367188 -0.53125 1.59375 -0.382812 1.894531 -0.382812 C 2.199219 -0.382812 2.425781 -0.53125 2.582031 -0.828125 C 2.730469 -1.125 2.808594 -1.574219 2.808594 -2.171875 C 2.808594 -2.765625 2.730469 -3.214844 2.582031 -3.511719 C 2.425781 -3.808594 2.199219 -3.957031 1.894531 -3.957031 Z M 1.894531 -4.425781 C 2.378906 -4.425781 2.75 -4.226562 3.011719 -3.84375 C 3.265625 -3.457031 3.398438 -2.898438 3.398438 -2.171875 C 3.398438 -1.4375 3.265625 -0.875 3.011719 -0.496094 C 2.75 -0.113281 2.378906 0.078125 1.890625 0.078125 C 1.402344 0.078125 1.03125 -0.113281 0.773438 -0.496094 C 0.519531 -0.875 0.394531 -1.4375 0.394531 -2.171875 C 0.394531 -2.898438 0.519531 -3.457031 0.773438 -3.84375 C 1.03125 -4.226562 1.40625 -4.425781 1.894531 -4.425781 Z M 1.894531 -4.425781 "/>
</g>
<g id="glyph-0-1">
<path d="M 0.644531 -4.347656 L 2.953125 -4.347656 L 2.953125 -3.851562 L 1.179688 -3.851562 L 1.179688 -2.785156 C 1.265625 -2.8125 1.351562 -2.839844 1.4375 -2.851562 C 1.519531 -2.863281 1.609375 -2.875 1.691406 -2.875 C 2.175781 -2.875 2.558594 -2.738281 2.84375 -2.472656 C 3.128906 -2.207031 3.273438 -1.847656 3.273438 -1.394531 C 3.273438 -0.925781 3.125 -0.558594 2.832031 -0.304688 C 2.539062 -0.046875 2.128906 0.078125 1.605469 0.078125 C 1.417969 0.078125 1.234375 0.0585938 1.042969 0.0351562 C 0.851562 0.0078125 0.660156 -0.0351562 0.460938 -0.101562 L 0.460938 -0.691406 C 0.632812 -0.597656 0.8125 -0.523438 1 -0.476562 C 1.1875 -0.429688 1.382812 -0.410156 1.59375 -0.410156 C 1.925781 -0.410156 2.195312 -0.496094 2.390625 -0.671875 C 2.582031 -0.851562 2.683594 -1.089844 2.683594 -1.394531 C 2.683594 -1.691406 2.582031 -1.933594 2.390625 -2.109375 C 2.195312 -2.289062 1.925781 -2.378906 1.59375 -2.378906 C 1.4375 -2.378906 1.277344 -2.359375 1.121094 -2.324219 C 0.964844 -2.289062 0.804688 -2.234375 0.644531 -2.164062 Z M 0.644531 -4.347656 "/>
</g>
<g id="glyph-0-2">
<path d="M 0.738281 -0.496094 L 1.699219 -0.496094 L 1.699219 -3.808594 L 0.65625 -3.601562 L 0.65625 -4.136719 L 1.691406 -4.347656 L 2.285156 -4.347656 L 2.285156 -0.496094 L 3.242188 -0.496094 L 3.242188 0 L 0.738281 0 Z M 0.738281 -0.496094 "/>
</g>
<g id="glyph-0-3">
<path d="M 1.144531 -0.496094 L 3.195312 -0.496094 L 3.195312 0 L 0.433594 0 L 0.433594 -0.496094 C 0.65625 -0.722656 0.960938 -1.03125 1.347656 -1.425781 C 1.730469 -1.8125 1.972656 -2.0625 2.074219 -2.175781 C 2.265625 -2.386719 2.398438 -2.5625 2.46875 -2.710938 C 2.539062 -2.855469 2.582031 -3.003906 2.582031 -3.148438 C 2.582031 -3.375 2.5 -3.566406 2.335938 -3.707031 C 2.175781 -3.851562 1.96875 -3.929688 1.707031 -3.929688 C 1.519531 -3.929688 1.324219 -3.894531 1.121094 -3.832031 C 0.917969 -3.769531 0.699219 -3.671875 0.464844 -3.542969 L 0.464844 -4.136719 C 0.703125 -4.234375 0.925781 -4.304688 1.125 -4.351562 C 1.328125 -4.398438 1.519531 -4.425781 1.691406 -4.425781 C 2.140625 -4.425781 2.5 -4.3125 2.765625 -4.085938 C 3.035156 -3.859375 3.171875 -3.558594 3.171875 -3.183594 C 3.171875 -3.003906 3.136719 -2.832031 3.070312 -2.675781 C 3.003906 -2.515625 2.886719 -2.324219 2.707031 -2.109375 C 2.660156 -2.050781 2.503906 -1.890625 2.242188 -1.621094 C 1.980469 -1.351562 1.617188 -0.976562 1.144531 -0.496094 Z M 1.144531 -0.496094 "/>
</g>
<g id="glyph-0-4">
<path d="M 0.636719 -0.738281 L 1.253906 -0.738281 L 1.253906 0 L 0.636719 0 Z M 0.636719 -0.738281 "/>
</g>
<g id="glyph-0-5">
<path d="M 2.253906 -3.832031 L 0.769531 -1.515625 L 2.253906 -1.515625 Z M 2.097656 -4.347656 L 2.839844 -4.347656 L 2.839844 -1.515625 L 3.457031 -1.515625 L 3.457031 -1.027344 L 2.839844 -1.027344 L 2.839844 0 L 2.253906 0 L 2.253906 -1.027344 L 0.292969 -1.027344 L 0.292969 -1.59375 Z M 2.097656 -4.347656 "/>
</g>
<g id="glyph-0-6">
<path d="M 1.96875 -2.410156 C 1.707031 -2.410156 1.496094 -2.3125 1.339844 -2.132812 C 1.1875 -1.957031 1.109375 -1.707031 1.109375 -1.394531 C 1.109375 -1.078125 1.1875 -0.828125 1.339844 -0.648438 C 1.496094 -0.472656 1.707031 -0.382812 1.96875 -0.382812 C 2.230469 -0.382812 2.4375 -0.472656 2.59375 -0.648438 C 2.75 -0.828125 2.824219 -1.078125 2.824219 -1.394531 C 2.824219 -1.707031 2.75 -1.957031 2.59375 -2.132812 C 2.4375 -2.3125 2.230469 -2.410156 1.96875 -2.410156 Z M 3.136719 -4.25 L 3.136719 -3.714844 C 2.988281 -3.785156 2.839844 -3.839844 2.6875 -3.875 C 2.535156 -3.910156 2.386719 -3.929688 2.242188 -3.929688 C 1.847656 -3.929688 1.550781 -3.796875 1.347656 -3.535156 C 1.144531 -3.273438 1.027344 -2.875 1 -2.347656 C 1.113281 -2.515625 1.257812 -2.648438 1.429688 -2.738281 C 1.605469 -2.824219 1.792969 -2.875 2.003906 -2.875 C 2.4375 -2.875 2.785156 -2.738281 3.035156 -2.472656 C 3.285156 -2.210938 3.417969 -1.847656 3.417969 -1.394531 C 3.417969 -0.949219 3.277344 -0.589844 3.015625 -0.320312 C 2.753906 -0.0546875 2.402344 0.078125 1.96875 0.078125 C 1.464844 0.078125 1.078125 -0.113281 0.816406 -0.496094 C 0.546875 -0.875 0.417969 -1.4375 0.417969 -2.171875 C 0.417969 -2.855469 0.578125 -3.40625 0.90625 -3.808594 C 1.226562 -4.214844 1.667969 -4.425781 2.21875 -4.425781 C 2.359375 -4.425781 2.511719 -4.40625 2.664062 -4.382812 C 2.8125 -4.351562 2.96875 -4.3125 3.136719 -4.25 Z M 3.136719 -4.25 "/>
</g>
<g id="glyph-1-0">
<path d="M 0.632812 -4.707031 L 1.273438 -4.707031 L 1.273438 -0.535156 L 3.566406 -0.535156 L 3.566406 0 L 0.632812 0 Z M 0.632812 -4.707031 "/>
</g>
<g id="glyph-1-1">
<path d="M 2.214844 -1.777344 C 1.742188 -1.777344 1.421875 -1.71875 1.238281 -1.613281 C 1.058594 -1.503906 0.96875 -1.324219 0.96875 -1.066406 C 0.96875 -0.859375 1.035156 -0.691406 1.167969 -0.574219 C 1.304688 -0.453125 1.492188 -0.394531 1.722656 -0.394531 C 2.046875 -0.394531 2.304688 -0.503906 2.5 -0.738281 C 2.695312 -0.960938 2.789062 -1.265625 2.789062 -1.648438 L 2.789062 -1.777344 Z M 3.371094 -2.015625 L 3.371094 0 L 2.789062 0 L 2.789062 -0.535156 C 2.65625 -0.316406 2.488281 -0.160156 2.292969 -0.0664062 C 2.097656 0.03125 1.855469 0.0820312 1.570312 0.0820312 C 1.207031 0.0820312 0.917969 -0.0117188 0.703125 -0.214844 C 0.492188 -0.414062 0.386719 -0.683594 0.386719 -1.027344 C 0.386719 -1.421875 0.515625 -1.71875 0.789062 -1.925781 C 1.054688 -2.125 1.445312 -2.226562 1.976562 -2.226562 L 2.789062 -2.226562 L 2.789062 -2.285156 C 2.789062 -2.550781 2.699219 -2.757812 2.527344 -2.90625 C 2.351562 -3.046875 2.105469 -3.125 1.789062 -3.125 C 1.582031 -3.125 1.390625 -3.101562 1.195312 -3.046875 C 1 -2.996094 0.820312 -2.925781 0.644531 -2.835938 L 0.644531 -3.371094 C 0.851562 -3.449219 1.058594 -3.515625 1.257812 -3.550781 C 1.460938 -3.589844 1.652344 -3.617188 1.847656 -3.617188 C 2.359375 -3.617188 2.738281 -3.480469 2.992188 -3.214844 C 3.242188 -2.953125 3.371094 -2.550781 3.371094 -2.015625 Z M 3.371094 -2.015625 "/>
</g>
<g id="glyph-1-2">
<path d="M 2.078125 0.324219 C 1.910156 0.738281 1.75 1.015625 1.59375 1.144531 C 1.441406 1.273438 1.234375 1.335938 0.976562 1.335938 L 0.511719 1.335938 L 0.511719 0.851562 L 0.851562 0.851562 C 1.007812 0.851562 1.128906 0.8125 1.222656 0.738281 C 1.3125 0.660156 1.40625 0.484375 1.519531 0.199219 L 1.621094 -0.0585938 L 0.195312 -3.53125 L 0.808594 -3.53125 L 1.910156 -0.769531 L 3.015625 -3.53125 L 3.628906 -3.53125 Z M 2.078125 0.324219 "/>
</g>
<g id="glyph-1-3">
<path d="M 3.628906 -1.910156 L 3.628906 -1.628906 L 0.960938 -1.628906 C 0.988281 -1.226562 1.105469 -0.917969 1.324219 -0.710938 C 1.539062 -0.503906 1.835938 -0.402344 2.222656 -0.402344 C 2.441406 -0.402344 2.660156 -0.425781 2.867188 -0.476562 C 3.074219 -0.53125 3.289062 -0.613281 3.496094 -0.730469 L 3.496094 -0.179688 C 3.289062 -0.0898438 3.074219 -0.0195312 2.855469 0.0195312 C 2.636719 0.0585938 2.410156 0.0820312 2.191406 0.0820312 C 1.621094 0.0820312 1.175781 -0.078125 0.847656 -0.402344 C 0.515625 -0.722656 0.355469 -1.167969 0.355469 -1.730469 C 0.355469 -2.304688 0.511719 -2.765625 0.820312 -3.105469 C 1.128906 -3.441406 1.554688 -3.617188 2.085938 -3.617188 C 2.5625 -3.617188 2.9375 -3.460938 3.214844 -3.160156 C 3.488281 -2.847656 3.628906 -2.433594 3.628906 -1.910156 Z M 3.046875 -2.078125 C 3.042969 -2.394531 2.953125 -2.648438 2.785156 -2.84375 C 2.609375 -3.03125 2.375 -3.125 2.09375 -3.125 C 1.769531 -3.125 1.511719 -3.03125 1.316406 -2.847656 C 1.125 -2.667969 1.007812 -2.410156 0.980469 -2.078125 Z M 3.046875 -2.078125 "/>
</g>
<g id="glyph-1-4">
<path d="M 2.65625 -2.992188 C 2.589844 -3.03125 2.519531 -3.054688 2.441406 -3.074219 C 2.363281 -3.085938 2.28125 -3.101562 2.191406 -3.101562 C 1.859375 -3.101562 1.609375 -2.992188 1.433594 -2.777344 C 1.253906 -2.5625 1.167969 -2.261719 1.167969 -1.859375 L 1.167969 0 L 0.585938 0 L 0.585938 -3.53125 L 1.167969 -3.53125 L 1.167969 -2.984375 C 1.285156 -3.195312 1.445312 -3.359375 1.640625 -3.460938 C 1.835938 -3.566406 2.074219 -3.617188 2.359375 -3.617188 C 2.394531 -3.617188 2.441406 -3.609375 2.492188 -3.609375 C 2.539062 -3.605469 2.589844 -3.597656 2.65625 -3.585938 Z M 2.65625 -2.992188 "/>
</g>
<g id="glyph-1-5">
</g>
<g id="glyph-1-6">
<path d="M 0.605469 -3.53125 L 1.1875 -3.53125 L 1.1875 0 L 0.605469 0 Z M 0.605469 -4.910156 L 1.1875 -4.910156 L 1.1875 -4.171875 L 0.605469 -4.171875 Z M 0.605469 -4.910156 "/>
</g>
<g id="glyph-1-7">
<path d="M 3.546875 -2.132812 L 3.546875 0 L 2.964844 0 L 2.964844 -2.113281 C 2.964844 -2.449219 2.894531 -2.695312 2.765625 -2.863281 C 2.636719 -3.03125 2.441406 -3.113281 2.183594 -3.113281 C 1.867188 -3.113281 1.621094 -3.011719 1.441406 -2.808594 C 1.257812 -2.609375 1.167969 -2.339844 1.167969 -1.996094 L 1.167969 0 L 0.585938 0 L 0.585938 -3.53125 L 1.167969 -3.53125 L 1.167969 -2.984375 C 1.304688 -3.191406 1.464844 -3.351562 1.660156 -3.457031 C 1.847656 -3.558594 2.066406 -3.617188 2.3125 -3.617188 C 2.710938 -3.617188 3.023438 -3.488281 3.230469 -3.234375 C 3.4375 -2.984375 3.546875 -2.617188 3.546875 -2.132812 Z M 3.546875 -2.132812 "/>
</g>
<g id="glyph-1-8">
<path d="M 2.933594 -2.996094 L 2.933594 -4.910156 L 3.515625 -4.910156 L 3.515625 0 L 2.933594 0 L 2.933594 -0.53125 C 2.808594 -0.316406 2.65625 -0.160156 2.46875 -0.0664062 C 2.28125 0.03125 2.058594 0.0820312 1.800781 0.0820312 C 1.375 0.0820312 1.027344 -0.0820312 0.753906 -0.417969 C 0.484375 -0.753906 0.355469 -1.207031 0.355469 -1.761719 C 0.355469 -2.320312 0.484375 -2.765625 0.753906 -3.105469 C 1.027344 -3.441406 1.375 -3.617188 1.800781 -3.617188 C 2.058594 -3.617188 2.28125 -3.566406 2.46875 -3.460938 C 2.65625 -3.359375 2.808594 -3.203125 2.933594 -2.996094 Z M 0.957031 -1.761719 C 0.957031 -1.335938 1.039062 -1 1.214844 -0.753906 C 1.390625 -0.511719 1.628906 -0.394531 1.9375 -0.394531 C 2.246094 -0.394531 2.488281 -0.511719 2.667969 -0.753906 C 2.84375 -1 2.933594 -1.335938 2.933594 -1.761719 C 2.933594 -2.191406 2.84375 -2.519531 2.667969 -2.765625 C 2.488281 -3.011719 2.246094 -3.132812 1.9375 -3.132812 C 1.628906 -3.132812 1.390625 -3.011719 1.214844 -2.765625 C 1.039062 -2.519531 0.957031 -2.191406 0.957031 -1.761719 Z M 0.957031 -1.761719 "/>
</g>
<g id="glyph-1-9">
<path d="M 3.546875 -3.53125 L 2.265625 -1.816406 L 3.609375 0 L 2.925781 0 L 1.898438 -1.390625 L 0.871094 0 L 0.1875 0 L 1.554688 -1.847656 L 0.304688 -3.53125 L 0.988281 -3.53125 L 1.925781 -2.273438 L 2.863281 -3.53125 Z M 3.546875 -3.53125 "/>
</g>
<g id="glyph-2-0">
<path d="M -4.347656 -4.160156 L -3.675781 -4.160156 C -3.867188 -3.941406 -4.015625 -3.714844 -4.121094 -3.46875 C -4.21875 -3.222656 -4.269531 -2.972656 -4.269531 -2.699219 C -4.269531 -2.15625 -4.101562 -1.742188 -3.773438 -1.460938 C -3.441406 -1.175781 -2.972656 -1.035156 -2.351562 -1.035156 C -1.730469 -1.035156 -1.253906 -1.175781 -0.921875 -1.460938 C -0.59375 -1.742188 -0.433594 -2.15625 -0.433594 -2.699219 C -0.433594 -2.972656 -0.476562 -3.222656 -0.582031 -3.46875 C -0.679688 -3.714844 -0.828125 -3.941406 -1.027344 -4.160156 L -0.363281 -4.160156 C -0.207031 -3.933594 -0.0976562 -3.695312 -0.0273438 -3.449219 C 0.046875 -3.203125 0.0820312 -2.9375 0.0820312 -2.660156 C 0.0820312 -1.949219 -0.128906 -1.390625 -0.5625 -0.976562 C -0.996094 -0.5625 -1.589844 -0.363281 -2.351562 -0.363281 C -3.105469 -0.363281 -3.699219 -0.5625 -4.140625 -0.976562 C -4.574219 -1.390625 -4.792969 -1.949219 -4.792969 -2.660156 C -4.792969 -2.945312 -4.753906 -3.210938 -4.683594 -3.457031 C -4.605469 -3.699219 -4.496094 -3.941406 -4.347656 -4.160156 Z M -4.347656 -4.160156 "/>
</g>
<g id="glyph-2-1">
<path d="M -4.707031 -0.632812 L -4.707031 -1.273438 L -2.71875 -1.273438 L -4.707031 -3.382812 L -4.707031 -4.203125 L -2.511719 -1.867188 L 0 -4.371094 L 0 -3.53125 L -2.265625 -1.273438 L 0 -1.273438 L 0 -0.632812 Z M -4.707031 -0.632812 "/>
</g>
<g id="glyph-2-2">
<path d="M -4.707031 -0.632812 L -4.707031 -1.492188 L -0.769531 -3.578125 L -4.707031 -3.578125 L -4.707031 -4.199219 L 0 -4.199219 L 0 -3.339844 L -3.941406 -1.253906 L 0 -1.253906 L 0 -0.632812 Z M -4.707031 -0.632812 "/>
</g>
<g id="glyph-2-3">
<path d="M -4.082031 -2.210938 L -1.738281 -1.34375 L -1.738281 -3.074219 Z M -4.707031 -1.847656 L -4.707031 -2.570312 L 0 -4.367188 L 0 -3.699219 L -1.207031 -3.273438 L -1.207031 -1.148438 L 0 -0.722656 L 0 -0.0507812 Z M -4.707031 -1.847656 "/>
</g>
<g id="glyph-3-0">
<path d="M 2.4375 -3.152344 L 2.355469 -2.75 L 1.324219 -2.75 L 0.992188 -1.039062 C 0.980469 -0.972656 0.96875 -0.921875 0.960938 -0.875 C 0.957031 -0.828125 0.957031 -0.800781 0.957031 -0.777344 C 0.957031 -0.65625 0.992188 -0.570312 1.066406 -0.511719 C 1.136719 -0.457031 1.25 -0.433594 1.410156 -0.433594 L 1.9375 -0.433594 L 1.851562 0 L 1.355469 0 C 1.042969 0 0.8125 -0.0585938 0.664062 -0.179688 C 0.511719 -0.300781 0.4375 -0.484375 0.4375 -0.726562 C 0.4375 -0.765625 0.4375 -0.8125 0.445312 -0.863281 C 0.449219 -0.917969 0.460938 -0.972656 0.472656 -1.039062 L 0.808594 -2.75 L 0.367188 -2.75 L 0.449219 -3.152344 L 0.882812 -3.152344 L 1.054688 -4.046875 L 1.574219 -4.046875 L 1.402344 -3.152344 Z M 2.4375 -3.152344 "/>
</g>
<g id="glyph-3-1">
<path d="M 3.433594 -3.152344 L 2.898438 -0.390625 C 2.796875 0.136719 2.59375 0.53125 2.304688 0.796875 C 2.011719 1.058594 1.621094 1.191406 1.128906 1.191406 C 0.945312 1.191406 0.773438 1.175781 0.617188 1.152344 C 0.460938 1.125 0.316406 1.082031 0.183594 1.027344 L 0.28125 0.523438 C 0.410156 0.605469 0.542969 0.664062 0.6875 0.703125 C 0.824219 0.742188 0.980469 0.765625 1.140625 0.765625 C 1.46875 0.765625 1.742188 0.675781 1.953125 0.496094 C 2.160156 0.316406 2.300781 0.0625 2.367188 -0.269531 L 2.414062 -0.507812 C 2.265625 -0.339844 2.097656 -0.214844 1.90625 -0.125 C 1.71875 -0.0390625 1.511719 0 1.292969 0 C 0.96875 0 0.71875 -0.105469 0.535156 -0.316406 C 0.351562 -0.523438 0.265625 -0.820312 0.265625 -1.1875 C 0.265625 -1.476562 0.316406 -1.761719 0.433594 -2.039062 C 0.542969 -2.316406 0.699219 -2.566406 0.898438 -2.785156 C 1.027344 -2.921875 1.179688 -3.03125 1.359375 -3.113281 C 1.539062 -3.1875 1.722656 -3.226562 1.917969 -3.226562 C 2.125 -3.226562 2.3125 -3.175781 2.472656 -3.078125 C 2.628906 -2.980469 2.742188 -2.839844 2.824219 -2.664062 L 2.917969 -3.152344 Z M 2.65625 -1.996094 C 2.65625 -2.246094 2.59375 -2.449219 2.472656 -2.585938 C 2.351562 -2.726562 2.183594 -2.796875 1.964844 -2.796875 C 1.828125 -2.796875 1.695312 -2.765625 1.574219 -2.714844 C 1.445312 -2.65625 1.34375 -2.582031 1.257812 -2.484375 C 1.113281 -2.324219 1.003906 -2.132812 0.921875 -1.914062 C 0.839844 -1.695312 0.800781 -1.46875 0.800781 -1.238281 C 0.800781 -0.972656 0.859375 -0.777344 0.980469 -0.640625 C 1.101562 -0.5 1.273438 -0.433594 1.503906 -0.433594 C 1.832031 -0.433594 2.109375 -0.578125 2.328125 -0.875 C 2.546875 -1.175781 2.65625 -1.542969 2.65625 -1.996094 Z M 2.65625 -1.996094 "/>
</g>
<g id="glyph-3-2">
<path d="M 3.210938 -1.902344 L 2.839844 0 L 2.324219 0 L 2.691406 -1.882812 C 2.703125 -1.972656 2.714844 -2.046875 2.726562 -2.113281 C 2.738281 -2.183594 2.742188 -2.234375 2.742188 -2.277344 C 2.742188 -2.433594 2.691406 -2.554688 2.59375 -2.644531 C 2.488281 -2.730469 2.351562 -2.777344 2.179688 -2.777344 C 1.902344 -2.777344 1.660156 -2.679688 1.457031 -2.496094 C 1.25 -2.304688 1.117188 -2.058594 1.058594 -1.746094 L 0.71875 0 L 0.203125 0 L 1.054688 -4.378906 L 1.574219 -4.378906 L 1.238281 -2.65625 C 1.367188 -2.828125 1.53125 -2.96875 1.742188 -3.070312 C 1.941406 -3.175781 2.15625 -3.226562 2.386719 -3.226562 C 2.664062 -3.226562 2.875 -3.152344 3.03125 -3.003906 C 3.179688 -2.851562 3.261719 -2.640625 3.261719 -2.367188 C 3.261719 -2.300781 3.257812 -2.230469 3.25 -2.15625 C 3.238281 -2.074219 3.226562 -1.996094 3.210938 -1.902344 Z M 3.210938 -1.902344 "/>
</g>
<g id="glyph-4-0">
<path d="M 0.609375 -2.617188 L 4.21875 -2.617188 L 4.21875 -2.144531 L 0.609375 -2.144531 Z M 0.609375 -1.46875 L 4.21875 -1.46875 L 4.21875 -0.992188 L 0.609375 -0.992188 Z M 0.609375 -1.46875 "/>
</g>
<g id="glyph-4-1">
<path d="M 1.832031 -3.828125 C 1.539062 -3.828125 1.320312 -3.683594 1.171875 -3.394531 C 1.019531 -3.105469 0.949219 -2.675781 0.949219 -2.097656 C 0.949219 -1.523438 1.019531 -1.089844 1.171875 -0.800781 C 1.320312 -0.511719 1.539062 -0.367188 1.832031 -0.367188 C 2.125 -0.367188 2.347656 -0.511719 2.496094 -0.800781 C 2.640625 -1.089844 2.714844 -1.523438 2.714844 -2.097656 C 2.714844 -2.675781 2.640625 -3.105469 2.496094 -3.394531 C 2.347656 -3.683594 2.125 -3.828125 1.832031 -3.828125 Z M 1.832031 -4.277344 C 2.300781 -4.277344 2.65625 -4.085938 2.910156 -3.71875 C 3.160156 -3.34375 3.285156 -2.800781 3.285156 -2.097656 C 3.285156 -1.390625 3.160156 -0.847656 2.910156 -0.476562 C 2.65625 -0.109375 2.300781 0.0742188 1.828125 0.0742188 C 1.355469 0.0742188 0.996094 -0.109375 0.75 -0.476562 C 0.5 -0.847656 0.378906 -1.390625 0.378906 -2.097656 C 0.378906 -2.800781 0.5 -3.34375 0.75 -3.71875 C 0.996094 -4.085938 1.359375 -4.277344 1.832031 -4.277344 Z M 1.832031 -4.277344 "/>
</g>
<g id="glyph-4-2">
<path d="M 0.617188 -0.714844 L 1.210938 -0.714844 L 1.210938 0 L 0.617188 0 Z M 0.617188 -0.714844 "/>
</g>
<g id="glyph-4-3">
<path d="M 1.105469 -0.476562 L 3.089844 -0.476562 L 3.089844 0 L 0.421875 0 L 0.421875 -0.476562 C 0.632812 -0.699219 0.929688 -0.996094 1.300781 -1.378906 C 1.671875 -1.753906 1.90625 -1.996094 2.003906 -2.105469 C 2.191406 -2.304688 2.316406 -2.476562 2.386719 -2.621094 C 2.457031 -2.761719 2.496094 -2.90625 2.496094 -3.042969 C 2.496094 -3.261719 2.414062 -3.445312 2.257812 -3.585938 C 2.105469 -3.722656 1.902344 -3.796875 1.648438 -3.796875 C 1.46875 -3.796875 1.28125 -3.761719 1.082031 -3.707031 C 0.886719 -3.640625 0.675781 -3.550781 0.449219 -3.421875 L 0.449219 -4 C 0.679688 -4.09375 0.894531 -4.160156 1.089844 -4.207031 C 1.285156 -4.253906 1.46875 -4.277344 1.636719 -4.277344 C 2.070312 -4.277344 2.414062 -4.167969 2.675781 -3.949219 C 2.933594 -3.730469 3.066406 -3.441406 3.066406 -3.078125 C 3.066406 -2.90625 3.03125 -2.738281 2.96875 -2.585938 C 2.90625 -2.433594 2.789062 -2.246094 2.617188 -2.039062 C 2.570312 -1.984375 2.421875 -1.828125 2.167969 -1.566406 C 1.914062 -1.308594 1.5625 -0.945312 1.105469 -0.476562 Z M 1.105469 -0.476562 "/>
</g>
<g id="glyph-4-4">
<path d="M 0.621094 -4.203125 L 2.851562 -4.203125 L 2.851562 -3.722656 L 1.140625 -3.722656 L 1.140625 -2.691406 C 1.222656 -2.71875 1.308594 -2.742188 1.390625 -2.753906 C 1.46875 -2.765625 1.554688 -2.777344 1.636719 -2.777344 C 2.105469 -2.777344 2.472656 -2.644531 2.75 -2.390625 C 3.027344 -2.132812 3.164062 -1.785156 3.164062 -1.347656 C 3.164062 -0.894531 3.019531 -0.542969 2.738281 -0.292969 C 2.457031 -0.046875 2.058594 0.0742188 1.550781 0.0742188 C 1.371094 0.0742188 1.191406 0.0585938 1.007812 0.0351562 C 0.824219 0.00390625 0.640625 -0.0351562 0.445312 -0.0976562 L 0.445312 -0.667969 C 0.609375 -0.578125 0.785156 -0.507812 0.96875 -0.460938 C 1.148438 -0.414062 1.335938 -0.398438 1.539062 -0.398438 C 1.863281 -0.398438 2.121094 -0.476562 2.3125 -0.652344 C 2.496094 -0.824219 2.59375 -1.054688 2.59375 -1.347656 C 2.59375 -1.636719 2.496094 -1.867188 2.3125 -2.039062 C 2.121094 -2.214844 1.863281 -2.300781 1.539062 -2.300781 C 1.390625 -2.300781 1.234375 -2.28125 1.082031 -2.246094 C 0.933594 -2.214844 0.777344 -2.160156 0.621094 -2.09375 Z M 0.621094 -4.203125 "/>
</g>
<g id="glyph-4-5">
<path d="M 1.785156 -4.375 C 1.53125 -3.9375 1.347656 -3.511719 1.226562 -3.089844 C 1.101562 -2.667969 1.042969 -2.242188 1.042969 -1.808594 C 1.042969 -1.371094 1.101562 -0.945312 1.226562 -0.523438 C 1.347656 -0.0976562 1.53125 0.324219 1.785156 0.753906 L 1.335938 0.753906 C 1.054688 0.3125 0.839844 -0.117188 0.703125 -0.542969 C 0.566406 -0.96875 0.496094 -1.390625 0.496094 -1.808594 C 0.496094 -2.226562 0.566406 -2.644531 0.703125 -3.070312 C 0.839844 -3.5 1.050781 -3.929688 1.335938 -4.375 Z M 1.785156 -4.375 "/>
</g>
<g id="glyph-4-6">
<path d="M 0.460938 -4.375 L 0.910156 -4.375 C 1.1875 -3.929688 1.402344 -3.5 1.539062 -3.070312 C 1.675781 -2.644531 1.753906 -2.226562 1.753906 -1.808594 C 1.753906 -1.390625 1.675781 -0.96875 1.539062 -0.542969 C 1.402344 -0.117188 1.1875 0.3125 0.910156 0.753906 L 0.460938 0.753906 C 0.707031 0.324219 0.894531 -0.0976562 1.019531 -0.523438 C 1.140625 -0.945312 1.203125 -1.371094 1.203125 -1.808594 C 1.203125 -2.242188 1.140625 -2.667969 1.019531 -3.089844 C 0.894531 -3.511719 0.707031 -3.9375 0.460938 -4.375 Z M 0.460938 -4.375 "/>
</g>
<g id="glyph-4-7">
<path d="M 3.082031 -4.0625 L 3.082031 -3.511719 C 2.863281 -3.613281 2.664062 -3.6875 2.472656 -3.742188 C 2.277344 -3.785156 2.09375 -3.816406 1.917969 -3.816406 C 1.609375 -3.816406 1.367188 -3.753906 1.199219 -3.636719 C 1.03125 -3.515625 0.949219 -3.34375 0.949219 -3.125 C 0.949219 -2.9375 1.003906 -2.796875 1.117188 -2.703125 C 1.226562 -2.605469 1.441406 -2.53125 1.753906 -2.472656 L 2.097656 -2.402344 C 2.519531 -2.324219 2.828125 -2.179688 3.03125 -1.976562 C 3.234375 -1.769531 3.335938 -1.5 3.335938 -1.160156 C 3.335938 -0.75 3.199219 -0.445312 2.929688 -0.234375 C 2.652344 -0.0273438 2.253906 0.0742188 1.730469 0.0742188 C 1.527344 0.0742188 1.3125 0.0507812 1.089844 0.0117188 C 0.863281 -0.0273438 0.632812 -0.09375 0.398438 -0.183594 L 0.398438 -0.773438 C 0.628906 -0.640625 0.851562 -0.542969 1.070312 -0.476562 C 1.292969 -0.410156 1.511719 -0.378906 1.730469 -0.378906 C 2.050781 -0.378906 2.300781 -0.445312 2.476562 -0.570312 C 2.652344 -0.699219 2.742188 -0.875 2.742188 -1.117188 C 2.742188 -1.324219 2.679688 -1.488281 2.554688 -1.601562 C 2.425781 -1.71875 2.21875 -1.804688 1.929688 -1.863281 L 1.585938 -1.929688 C 1.160156 -2.011719 0.851562 -2.144531 0.664062 -2.328125 C 0.472656 -2.507812 0.378906 -2.753906 0.378906 -3.078125 C 0.378906 -3.445312 0.507812 -3.742188 0.773438 -3.953125 C 1.03125 -4.167969 1.394531 -4.277344 1.855469 -4.277344 C 2.050781 -4.277344 2.246094 -4.257812 2.457031 -4.226562 C 2.65625 -4.191406 2.863281 -4.132812 3.082031 -4.0625 Z M 3.082031 -4.0625 "/>
</g>
<g id="glyph-4-8">
<path d="M 0.542969 -3.152344 L 1.058594 -3.152344 L 1.058594 0 L 0.542969 0 Z M 0.542969 -4.378906 L 1.058594 -4.378906 L 1.058594 -3.722656 L 0.542969 -3.722656 Z M 0.542969 -4.378906 "/>
</g>
<g id="glyph-4-9">
<path d="M -0.0117188 -4.203125 L 3.539062 -4.203125 L 3.539062 -3.722656 L 2.046875 -3.722656 L 2.046875 0 L 1.476562 0 L 1.476562 -3.722656 L -0.0117188 -3.722656 Z M -0.0117188 -4.203125 "/>
</g>
<g id="glyph-4-10">
<path d="M 0.28125 -1.808594 L 1.796875 -1.808594 L 1.796875 -1.347656 L 0.28125 -1.347656 Z M 0.28125 -1.808594 "/>
</g>
<g id="glyph-4-11">
<path d="M 0.363281 -4.203125 L 0.972656 -4.203125 L 2.015625 -2.640625 L 3.066406 -4.203125 L 3.675781 -4.203125 L 2.328125 -2.183594 L 3.769531 0 L 3.160156 0 L 1.976562 -1.785156 L 0.785156 0 L 0.171875 0 L 1.671875 -2.242188 Z M 0.363281 -4.203125 "/>
</g>
<g id="glyph-4-12">
<path d="M 0.566406 -4.203125 L 1.136719 -4.203125 L 1.136719 -0.476562 L 3.179688 -0.476562 L 3.179688 0 L 0.566406 0 Z M 0.566406 -4.203125 "/>
</g>
<g id="glyph-4-13">
<path d="M 1.464844 -4.203125 L 1.941406 -4.203125 L 0.476562 0.53125 L 0 0.53125 Z M 1.464844 -4.203125 "/>
</g>
<g id="glyph-4-14">
</g>
<g id="glyph-4-15">
<path d="M 2.652344 -3.613281 L 2.652344 -2.046875 L 4.21875 -2.046875 L 4.21875 -1.566406 L 2.652344 -1.566406 L 2.652344 0 L 2.179688 0 L 2.179688 -1.566406 L 0.609375 -1.566406 L 0.609375 -2.046875 L 2.179688 -2.046875 L 2.179688 -3.613281 Z M 2.652344 -3.613281 "/>
</g>
<g id="glyph-4-16">
<path d="M 2.558594 -1.972656 C 2.679688 -1.925781 2.800781 -1.839844 2.917969 -1.707031 C 3.03125 -1.566406 3.148438 -1.382812 3.261719 -1.148438 L 3.839844 0 L 3.226562 0 L 2.691406 -1.078125 C 2.554688 -1.355469 2.414062 -1.542969 2.289062 -1.636719 C 2.15625 -1.730469 1.976562 -1.773438 1.753906 -1.773438 L 1.136719 -1.773438 L 1.136719 0 L 0.566406 0 L 0.566406 -4.203125 L 1.851562 -4.203125 C 2.328125 -4.203125 2.6875 -4.097656 2.921875 -3.902344 C 3.160156 -3.699219 3.28125 -3.394531 3.28125 -2.992188 C 3.28125 -2.726562 3.214844 -2.5 3.09375 -2.328125 C 2.96875 -2.15625 2.789062 -2.035156 2.558594 -1.972656 Z M 1.136719 -3.734375 L 1.136719 -2.242188 L 1.851562 -2.242188 C 2.121094 -2.242188 2.328125 -2.304688 2.464844 -2.433594 C 2.605469 -2.558594 2.679688 -2.742188 2.679688 -2.992188 C 2.679688 -3.234375 2.605469 -3.417969 2.464844 -3.542969 C 2.328125 -3.671875 2.121094 -3.734375 1.851562 -3.734375 Z M 1.136719 -3.734375 "/>
</g>
<g id="glyph-4-17">
<path d="M 0.566406 -4.203125 L 3.222656 -4.203125 L 3.222656 -3.722656 L 1.136719 -3.722656 L 1.136719 -2.476562 L 3.136719 -2.476562 L 3.136719 -2 L 1.136719 -2 L 1.136719 -0.476562 L 3.273438 -0.476562 L 3.273438 0 L 0.566406 0 Z M 0.566406 -4.203125 "/>
</g>
<g id="glyph-4-18">
<path d="M 1.136719 -3.734375 L 1.136719 -2.15625 L 1.851562 -2.15625 C 2.113281 -2.15625 2.316406 -2.21875 2.460938 -2.355469 C 2.605469 -2.496094 2.679688 -2.691406 2.679688 -2.945312 C 2.679688 -3.199219 2.605469 -3.390625 2.460938 -3.527344 C 2.316406 -3.664062 2.113281 -3.734375 1.851562 -3.734375 Z M 0.566406 -4.203125 L 1.851562 -4.203125 C 2.316406 -4.203125 2.675781 -4.09375 2.917969 -3.878906 C 3.160156 -3.664062 3.28125 -3.355469 3.28125 -2.945312 C 3.28125 -2.53125 3.160156 -2.214844 2.917969 -2.003906 C 2.675781 -1.792969 2.316406 -1.6875 1.851562 -1.6875 L 1.136719 -1.6875 L 1.136719 0 L 0.566406 0 Z M 0.566406 -4.203125 "/>
</g>
<g id="glyph-4-19">
<path d="M 1.972656 -3.640625 L 1.199219 -1.550781 L 2.742188 -1.550781 Z M 1.648438 -4.203125 L 2.292969 -4.203125 L 3.894531 0 L 3.300781 0 L 2.921875 -1.078125 L 1.027344 -1.078125 L 0.644531 0 L 0.046875 0 Z M 1.648438 -4.203125 "/>
</g>
</g>
<clipPath id="clip-0">
<path clip-rule="nonzero" d="M 0 0 L 142.195312 0 L 142.195312 106.644531 L 0 106.644531 Z M 0 0 "/>
</clipPath>
<clipPath id="clip-1">
<path clip-rule="nonzero" d="M 23.371094 85 L 139.082031 85 L 139.082031 86.113281 L 23.371094 86.113281 Z M 23.371094 85 "/>
</clipPath>
<clipPath id="clip-2">
<path clip-rule="nonzero" d="M 23.371094 64 L 139.082031 64 L 139.082031 66 L 23.371094 66 Z M 23.371094 64 "/>
</clipPath>
<clipPath id="clip-3">
<path clip-rule="nonzero" d="M 23.371094 43 L 139.082031 43 L 139.082031 45 L 23.371094 45 Z M 23.371094 43 "/>
</clipPath>
<clipPath id="clip-4">
<path clip-rule="nonzero" d="M 23.371094 22 L 139.082031 22 L 139.082031 24 L 23.371094 24 Z M 23.371094 22 "/>
</clipPath>
<clipPath id="clip-5">
<path clip-rule="nonzero" d="M 23.371094 28 L 139.082031 28 L 139.082031 29 L 23.371094 29 Z M 23.371094 28 "/>
</clipPath>
<clipPath id="clip-6">
<path clip-rule="nonzero" d="M 27 84 L 30 84 L 30 86.113281 L 27 86.113281 Z M 27 84 "/>
</clipPath>
<clipPath id="clip-7">
<path clip-rule="nonzero" d="M 26 83 L 30 83 L 30 86.113281 L 26 86.113281 Z M 26 83 "/>
</clipPath>
<clipPath id="clip-8">
<path clip-rule="nonzero" d="M 73 34 L 142.195312 34 L 142.195312 59 L 73 59 Z M 73 34 "/>
</clipPath>
</defs>
<g clip-path="url(#clip-0)">
<path fill-rule="nonzero" fill="rgb(100%, 100%, 100%)" fill-opacity="1" d="M 0 106.644531 L 142.195312 106.644531 L 142.195312 0 L 0 0 Z M 0 106.644531 "/>
</g>
<path fill-rule="nonzero" fill="rgb(100%, 100%, 100%)" fill-opacity="1" d="M 23.371094 86.113281 L 139.082031 86.113281 L 139.082031 12.589844 L 23.371094 12.589844 Z M 23.371094 86.113281 "/>
<path fill="none" stroke-width="0.6" stroke-linecap="butt" stroke-linejoin="round" stroke="rgb(0%, 0%, 0%)" stroke-opacity="1" stroke-miterlimit="10" d="M 28.270919 20.661089 L 28.270919 18.459728 " transform="matrix(0.993704, 0, 0, -0.993704, 0.000833333, 106.644281)"/>
<g fill="rgb(0%, 0%, 0%)" fill-opacity="1">
<use xlink:href="#glyph-0-0" x="26.201338" y="94.821692"/>
</g>
<path fill="none" stroke-width="0.6" stroke-linecap="butt" stroke-linejoin="round" stroke="rgb(0%, 0%, 0%)" stroke-opacity="1" stroke-miterlimit="10" d="M 48.075301 20.661089 L 48.075301 18.459728 " transform="matrix(0.993704, 0, 0, -0.993704, 0.000833333, 106.644281)"/>
<g fill="rgb(0%, 0%, 0%)" fill-opacity="1">
<use xlink:href="#glyph-0-1" x="45.879844" y="94.821692"/>
</g>
<path fill="none" stroke-width="0.6" stroke-linecap="butt" stroke-linejoin="round" stroke="rgb(0%, 0%, 0%)" stroke-opacity="1" stroke-miterlimit="10" d="M 67.879682 20.661089 L 67.879682 18.459728 " transform="matrix(0.993704, 0, 0, -0.993704, 0.000833333, 106.644281)"/>
<g fill="rgb(0%, 0%, 0%)" fill-opacity="1">
<use xlink:href="#glyph-0-2" x="63.664102" y="94.821692"/>
<use xlink:href="#glyph-0-0" x="67.456076" y="94.821692"/>
</g>
<path fill="none" stroke-width="0.6" stroke-linecap="butt" stroke-linejoin="round" stroke="rgb(0%, 0%, 0%)" stroke-opacity="1" stroke-miterlimit="10" d="M 87.684064 20.661089 L 87.684064 18.459728 " transform="matrix(0.993704, 0, 0, -0.993704, 0.000833333, 106.644281)"/>
<g fill="rgb(0%, 0%, 0%)" fill-opacity="1">
<use xlink:href="#glyph-0-2" x="83.342608" y="94.821692"/>
<use xlink:href="#glyph-0-1" x="87.134582" y="94.821692"/>
</g>
<path fill="none" stroke-width="0.6" stroke-linecap="butt" stroke-linejoin="round" stroke="rgb(0%, 0%, 0%)" stroke-opacity="1" stroke-miterlimit="10" d="M 107.484515 20.661089 L 107.484515 18.459728 " transform="matrix(0.993704, 0, 0, -0.993704, 0.000833333, 106.644281)"/>
<g fill="rgb(0%, 0%, 0%)" fill-opacity="1">
<use xlink:href="#glyph-0-3" x="103.021114" y="94.821692"/>
<use xlink:href="#glyph-0-0" x="106.813088" y="94.821692"/>
</g>
<path fill="none" stroke-width="0.6" stroke-linecap="butt" stroke-linejoin="round" stroke="rgb(0%, 0%, 0%)" stroke-opacity="1" stroke-miterlimit="10" d="M 127.288897 20.661089 L 127.288897 18.459728 " transform="matrix(0.993704, 0, 0, -0.993704, 0.000833333, 106.644281)"/>
<g fill="rgb(0%, 0%, 0%)" fill-opacity="1">
<use xlink:href="#glyph-0-3" x="122.69962" y="94.821692"/>
<use xlink:href="#glyph-0-1" x="126.491593" y="94.821692"/>
</g>
<g fill="rgb(0%, 0%, 0%)" fill-opacity="1">
<use xlink:href="#glyph-1-0" x="62.362708" y="103.33028"/>
<use xlink:href="#glyph-1-1" x="65.960412" y="103.33028"/>
<use xlink:href="#glyph-1-2" x="69.919825" y="103.33028"/>
<use xlink:href="#glyph-1-3" x="73.743597" y="103.33028"/>
<use xlink:href="#glyph-1-4" x="77.715927" y="103.33028"/>
<use xlink:href="#glyph-1-5" x="80.370607" y="103.33028"/>
<use xlink:href="#glyph-1-6" x="82.424592" y="103.33028"/>
<use xlink:href="#glyph-1-7" x="84.220215" y="103.33028"/>
<use xlink:href="#glyph-1-8" x="88.315268" y="103.33028"/>
<use xlink:href="#glyph-1-3" x="92.41678" y="103.33028"/>
</g>
<g fill="rgb(0%, 0%, 0%)" fill-opacity="1">
<use xlink:href="#glyph-1-9" x="96.280424" y="103.33028"/>
</g>
<g clip-path="url(#clip-1)">
<path fill="none" stroke-width="0.5" stroke-linecap="butt" stroke-linejoin="round" stroke="rgb(89.99939%, 89.99939%, 89.99939%)" stroke-opacity="1" stroke-dasharray="1.8 1.35" stroke-miterlimit="10" d="M 23.518339 20.661089 L 139.962443 20.661089 " transform="matrix(0.993704, 0, 0, -0.993704, 0.000833333, 106.644281)"/>
</g>
<path fill="none" stroke-width="0.6" stroke-linecap="butt" stroke-linejoin="round" stroke="rgb(0%, 0%, 0%)" stroke-opacity="1" stroke-miterlimit="10" d="M 23.518339 20.661089 L 21.320909 20.661089 " transform="matrix(0.993704, 0, 0, -0.993704, 0.000833333, 106.644281)"/>
<g fill="rgb(0%, 0%, 0%)" fill-opacity="1">
<use xlink:href="#glyph-0-0" x="9.926691" y="88.38125"/>
<use xlink:href="#glyph-0-4" x="13.718665" y="88.38125"/>
<use xlink:href="#glyph-0-0" x="15.614651" y="88.38125"/>
</g>
<g clip-path="url(#clip-2)">
<path fill="none" stroke-width="0.5" stroke-linecap="butt" stroke-linejoin="round" stroke="rgb(89.99939%, 89.99939%, 89.99939%)" stroke-opacity="1" stroke-dasharray="1.8 1.35" stroke-miterlimit="10" d="M 23.518339 41.79808 L 139.962443 41.79808 " transform="matrix(0.993704, 0, 0, -0.993704, 0.000833333, 106.644281)"/>
</g>
<path fill="none" stroke-width="0.6" stroke-linecap="butt" stroke-linejoin="round" stroke="rgb(0%, 0%, 0%)" stroke-opacity="1" stroke-miterlimit="10" d="M 23.518339 41.79808 L 21.320909 41.79808 " transform="matrix(0.993704, 0, 0, -0.993704, 0.000833333, 106.644281)"/>
<g fill="rgb(0%, 0%, 0%)" fill-opacity="1">
<use xlink:href="#glyph-0-0" x="9.926691" y="67.374353"/>
<use xlink:href="#glyph-0-4" x="13.718665" y="67.374353"/>
<use xlink:href="#glyph-0-3" x="15.614651" y="67.374353"/>
</g>
<g clip-path="url(#clip-3)">
<path fill="none" stroke-width="0.5" stroke-linecap="butt" stroke-linejoin="round" stroke="rgb(89.99939%, 89.99939%, 89.99939%)" stroke-opacity="1" stroke-dasharray="1.8 1.35" stroke-miterlimit="10" d="M 23.518339 62.939002 L 139.962443 62.939002 " transform="matrix(0.993704, 0, 0, -0.993704, 0.000833333, 106.644281)"/>
</g>
<path fill="none" stroke-width="0.6" stroke-linecap="butt" stroke-linejoin="round" stroke="rgb(0%, 0%, 0%)" stroke-opacity="1" stroke-miterlimit="10" d="M 23.518339 62.939002 L 21.320909 62.939002 " transform="matrix(0.993704, 0, 0, -0.993704, 0.000833333, 106.644281)"/>
<g fill="rgb(0%, 0%, 0%)" fill-opacity="1">
<use xlink:href="#glyph-0-0" x="9.926691" y="46.367457"/>
<use xlink:href="#glyph-0-4" x="13.718665" y="46.367457"/>
<use xlink:href="#glyph-0-5" x="15.614651" y="46.367457"/>
</g>
<g clip-path="url(#clip-4)">
<path fill="none" stroke-width="0.5" stroke-linecap="butt" stroke-linejoin="round" stroke="rgb(89.99939%, 89.99939%, 89.99939%)" stroke-opacity="1" stroke-dasharray="1.8 1.35" stroke-miterlimit="10" d="M 23.518339 84.079924 L 139.962443 84.079924 " transform="matrix(0.993704, 0, 0, -0.993704, 0.000833333, 106.644281)"/>
</g>
<path fill="none" stroke-width="0.6" stroke-linecap="butt" stroke-linejoin="round" stroke="rgb(0%, 0%, 0%)" stroke-opacity="1" stroke-miterlimit="10" d="M 23.518339 84.079924 L 21.320909 84.079924 " transform="matrix(0.993704, 0, 0, -0.993704, 0.000833333, 106.644281)"/>
<g fill="rgb(0%, 0%, 0%)" fill-opacity="1">
<use xlink:href="#glyph-0-0" x="9.926691" y="25.360561"/>
<use xlink:href="#glyph-0-4" x="13.718665" y="25.360561"/>
<use xlink:href="#glyph-0-6" x="15.614651" y="25.360561"/>
</g>
<g fill="rgb(0%, 0%, 0%)" fill-opacity="1">
<use xlink:href="#glyph-2-0" x="6.495308" y="60.772124"/>
<use xlink:href="#glyph-2-1" x="6.495308" y="56.26369"/>
<use xlink:href="#glyph-2-2" x="6.495308" y="52.026537"/>
<use xlink:href="#glyph-2-2" x="6.495308" y="47.19515"/>
<use xlink:href="#glyph-2-3" x="6.495308" y="42.363763"/>
</g>
<g clip-path="url(#clip-5)">
<path fill="none" stroke-width="0.8" stroke-linecap="butt" stroke-linejoin="round" stroke="rgb(13.33313%, 59.214783%, 36.077881%)" stroke-opacity="1" stroke-dasharray="2.88 1.92" stroke-miterlimit="10" d="M 23.518339 78.584385 L 139.962443 78.584385 " transform="matrix(0.993704, 0, 0, -0.993704, 0.000833333, 106.644281)"/>
</g>
<path fill="none" stroke-width="0.9" stroke-linecap="square" stroke-linejoin="round" stroke="rgb(13.33313%, 59.214783%, 36.077881%)" stroke-opacity="1" stroke-miterlimit="10" d="M 28.270919 21.466944 L 40.154334 23.047206 L 55.996267 70.148457 L 63.917234 66.748141 L 75.800649 50.906208 L 87.684064 42.022147 L 99.563548 38.216938 L 111.446964 34.553245 L 123.326448 32.481608 L 135.209863 29.722045 " transform="matrix(0.993704, 0, 0, -0.993704, 0.000833333, 106.644281)"/>
<g clip-path="url(#clip-6)">
<path fill-rule="nonzero" fill="rgb(13.33313%, 59.214783%, 36.077881%)" fill-opacity="1" d="M 28.09375 86.308594 C 28.359375 86.308594 28.613281 86.203125 28.796875 86.015625 C 28.984375 85.832031 29.089844 85.578125 29.089844 85.3125 C 29.089844 85.050781 28.984375 84.796875 28.796875 84.613281 C 28.613281 84.425781 28.359375 84.320312 28.09375 84.320312 C 27.832031 84.320312 27.578125 84.425781 27.394531 84.613281 C 27.207031 84.796875 27.101562 85.050781 27.101562 85.3125 C 27.101562 85.578125 27.207031 85.832031 27.394531 86.015625 C 27.578125 86.203125 27.832031 86.308594 28.09375 86.308594 Z M 28.09375 86.308594 "/>
</g>
<g clip-path="url(#clip-7)">
<path fill="none" stroke-width="1" stroke-linecap="butt" stroke-linejoin="round" stroke="rgb(13.33313%, 59.214783%, 36.077881%)" stroke-opacity="1" stroke-miterlimit="10" d="M -0.0018475 -1.00079 C 0.265461 -1.00079 0.520976 -0.894653 0.705733 -0.705965 C 0.894421 -0.521208 1.000558 -0.265693 1.000558 0.00161542 C 1.000558 0.264992 0.894421 0.520508 0.705733 0.705265 C 0.520976 0.893953 0.265461 1.00009 -0.0018475 1.00009 C -0.265225 1.00009 -0.52074 0.893953 -0.705497 0.705265 C -0.894185 0.520508 -1.000322 0.264992 -1.000322 0.00161542 C -1.000322 -0.265693 -0.894185 -0.521208 -0.705497 -0.705965 C -0.52074 -0.894653 -0.265225 -1.00079 -0.0018475 -1.00079 Z M -0.0018475 -1.00079 " transform="matrix(0.993704, 0, 0, -0.993704, 28.095586, 85.314105)"/>
</g>
<path fill-rule="nonzero" fill="rgb(13.33313%, 59.214783%, 36.077881%)" fill-opacity="1" stroke-width="1" stroke-linecap="butt" stroke-linejoin="round" stroke="rgb(13.33313%, 59.214783%, 36.077881%)" stroke-opacity="1" stroke-miterlimit="10" d="M -0.000347856 -1.000742 C 0.26696 -1.000742 0.518544 -0.894605 0.707232 -0.705917 C 0.89592 -0.52116 0.998126 -0.265645 0.998126 0.00166272 C 0.998126 0.26504 0.89592 0.520555 0.707232 0.705312 C 0.518544 0.894 0.26696 1.000137 -0.000347856 1.000137 C -0.263725 1.000137 -0.51924 0.894 -0.707928 0.705312 C -0.892685 0.520555 -0.998822 0.26504 -0.998822 0.00166272 C -0.998822 -0.265645 -0.892685 -0.52116 -0.707928 -0.705917 C -0.51924 -0.894605 -0.263725 -1.000742 -0.000347856 -1.000742 Z M -0.000347856 -1.000742 " transform="matrix(0.993704, 0, 0, -0.993704, 39.902689, 83.74384)"/>
<path fill-rule="nonzero" fill="rgb(13.33313%, 59.214783%, 36.077881%)" fill-opacity="1" stroke-width="1" stroke-linecap="butt" stroke-linejoin="round" stroke="rgb(13.33313%, 59.214783%, 36.077881%)" stroke-opacity="1" stroke-miterlimit="10" d="M -0.000969002 -1.000891 C 0.266339 -1.000891 0.517923 -0.894754 0.706611 -0.706066 C 0.895299 -0.521309 1.001436 -0.265794 1.001436 0.00151385 C 1.001436 0.264891 0.895299 0.520406 0.706611 0.705163 C 0.517923 0.893851 0.266339 0.999988 -0.000969002 0.999988 C -0.264346 0.999988 -0.519861 0.893851 -0.708549 0.705163 C -0.893306 0.520406 -0.999443 0.264891 -0.999443 0.00151385 C -0.999443 -0.265794 -0.893306 -0.521309 -0.708549 -0.706066 C -0.519861 -0.894754 -0.264346 -1.000891 -0.000969002 -1.000891 Z M -0.000969002 -1.000891 " transform="matrix(0.993704, 0, 0, -0.993704, 55.645494, 36.939004)"/>
<path fill-rule="nonzero" fill="rgb(13.33313%, 59.214783%, 36.077881%)" fill-opacity="1" stroke-width="1" stroke-linecap="butt" stroke-linejoin="round" stroke="rgb(13.33313%, 59.214783%, 36.077881%)" stroke-opacity="1" stroke-miterlimit="10" d="M -0.00127957 -1.000078 C 0.266028 -1.000078 0.521544 -0.893941 0.706301 -0.705253 C 0.894989 -0.520496 1.001126 -0.264981 1.001126 -0.00160379 C 1.001126 0.265704 0.894989 0.521219 0.706301 0.705976 C 0.521544 0.894664 0.266028 1.000801 -0.00127957 1.000801 C -0.264657 1.000801 -0.520172 0.894664 -0.70886 0.705976 C -0.893617 0.521219 -0.999754 0.265704 -0.999754 -0.00160379 C -0.999754 -0.264981 -0.893617 -0.520496 -0.70886 -0.705253 C -0.520172 -0.893941 -0.264657 -1.000078 -0.00127957 -1.000078 Z M -0.00127957 -1.000078 " transform="matrix(0.993704, 0, 0, -0.993704, 63.516897, 40.314813)"/>
<path fill-rule="nonzero" fill="rgb(13.33313%, 59.214783%, 36.077881%)" fill-opacity="1" stroke-width="1" stroke-linecap="butt" stroke-linejoin="round" stroke="rgb(13.33313%, 59.214783%, 36.077881%)" stroke-opacity="1" stroke-miterlimit="10" d="M 0.000220067 -1.000118 C 0.263597 -1.000118 0.519112 -0.893981 0.7078 -0.705293 C 0.896488 -0.520536 0.998694 -0.265021 0.998694 -0.0016436 C 0.998694 0.265664 0.896488 0.52118 0.7078 0.705937 C 0.519112 0.894625 0.263597 1.000762 0.000220067 1.000762 C -0.267088 1.000762 -0.518672 0.894625 -0.70736 0.705937 C -0.896048 0.52118 -0.998254 0.265664 -0.998254 -0.0016436 C -0.998254 -0.265021 -0.896048 -0.520536 -0.70736 -0.705293 C -0.518672 -0.893981 -0.267088 -1.000118 0.000220067 -1.000118 Z M 0.000220067 -1.000118 " transform="matrix(0.993704, 0, 0, -0.993704, 75.324, 56.056961)"/>
<path fill-rule="nonzero" fill="rgb(13.33313%, 59.214783%, 36.077881%)" fill-opacity="1" stroke-width="1" stroke-linecap="butt" stroke-linejoin="round" stroke="rgb(13.33313%, 59.214783%, 36.077881%)" stroke-opacity="1" stroke-miterlimit="10" d="M 0.00171971 -0.998403 C 0.265097 -0.998403 0.520612 -0.896197 0.705369 -0.707509 C 0.894057 -0.518821 1.000194 -0.263306 1.000194 0.0000709176 C 1.000194 0.263448 0.894057 0.518963 0.705369 0.707651 C 0.520612 0.896339 0.265097 0.998545 0.00171971 0.998545 C -0.265588 0.998545 -0.521103 0.896339 -0.70586 0.707651 C -0.894548 0.518963 -1.000685 0.263448 -1.000685 0.0000709176 C -1.000685 -0.263306 -0.894548 -0.518821 -0.70586 -0.707509 C -0.521103 -0.896197 -0.265588 -0.998403 0.00171971 -0.998403 Z M 0.00171971 -0.998403 " transform="matrix(0.993704, 0, 0, -0.993704, 87.131104, 64.886789)"/>
<path fill-rule="nonzero" fill="rgb(13.33313%, 59.214783%, 36.077881%)" fill-opacity="1" stroke-width="1" stroke-linecap="butt" stroke-linejoin="round" stroke="rgb(13.33313%, 59.214783%, 36.077881%)" stroke-opacity="1" stroke-miterlimit="10" d="M -0.000711651 -1.001392 C 0.266596 -1.001392 0.51818 -0.895255 0.706868 -0.706567 C 0.895557 -0.517879 1.001694 -0.266295 1.001694 0.0010135 C 1.001694 0.264391 0.895557 0.519906 0.706868 0.708594 C 0.51818 0.893351 0.266596 0.999488 -0.000711651 0.999488 C -0.264089 0.999488 -0.519604 0.893351 -0.708292 0.708594 C -0.893049 0.519906 -0.999186 0.264391 -0.999186 0.0010135 C -0.999186 -0.266295 -0.893049 -0.517879 -0.708292 -0.706567 C -0.519604 -0.895255 -0.264089 -1.001392 -0.000711651 -1.001392 Z M -0.000711651 -1.001392 " transform="matrix(0.993704, 0, 0, -0.993704, 98.938207, 68.668976)"/>
<path fill-rule="nonzero" fill="rgb(13.33313%, 59.214783%, 36.077881%)" fill-opacity="1" stroke-width="1" stroke-linecap="butt" stroke-linejoin="round" stroke="rgb(13.33313%, 59.214783%, 36.077881%)" stroke-opacity="1" stroke-miterlimit="10" d="M 0.00078799 -1.000022 C 0.264165 -1.000022 0.51968 -0.893885 0.708368 -0.705197 C 0.893125 -0.52044 0.999262 -0.264925 0.999262 -0.0015483 C 0.999262 0.26576 0.893125 0.521275 0.708368 0.706032 C 0.51968 0.89472 0.264165 1.000857 0.00078799 1.000857 C -0.26652 1.000857 -0.518104 0.89472 -0.706792 0.706032 C -0.89548 0.521275 -1.001617 0.26576 -1.001617 -0.0015483 C -1.001617 -0.264925 -0.89548 -0.52044 -0.706792 -0.705197 C -0.518104 -0.893885 -0.26652 -1.000022 0.00078799 -1.000022 Z M 0.00078799 -1.000022 " transform="matrix(0.993704, 0, 0, -0.993704, 110.745311, 72.307055)"/>
<path fill-rule="nonzero" fill="rgb(13.33313%, 59.214783%, 36.077881%)" fill-opacity="1" stroke-width="1" stroke-linecap="butt" stroke-linejoin="round" stroke="rgb(13.33313%, 59.214783%, 36.077881%)" stroke-opacity="1" stroke-miterlimit="10" d="M -0.00164337 -1.000594 C 0.265665 -1.000594 0.52118 -0.894457 0.705937 -0.705769 C 0.894625 -0.521012 1.000762 -0.265497 1.000762 0.00181101 C 1.000762 0.265188 0.894625 0.520703 0.705937 0.70546 C 0.52118 0.894148 0.265665 1.000285 -0.00164337 1.000285 C -0.26502 1.000285 -0.520535 0.894148 -0.705293 0.70546 C -0.893981 0.520703 -1.000118 0.265188 -1.000118 0.00181101 C -1.000118 -0.265497 -0.893981 -0.521012 -0.705293 -0.705769 C -0.520535 -0.894457 -0.26502 -1.000594 -0.00164337 -1.000594 Z M -0.00164337 -1.000594 " transform="matrix(0.993704, 0, 0, -0.993704, 122.552414, 74.368987)"/>
<path fill-rule="nonzero" fill="rgb(13.33313%, 59.214783%, 36.077881%)" fill-opacity="1" stroke-width="1" stroke-linecap="butt" stroke-linejoin="round" stroke="rgb(13.33313%, 59.214783%, 36.077881%)" stroke-opacity="1" stroke-miterlimit="10" d="M -0.000143728 -0.999253 C 0.267164 -0.999253 0.518748 -0.893116 0.707436 -0.708359 C 0.896124 -0.519671 0.99833 -0.264155 0.99833 -0.000778415 C 0.99833 0.26653 0.896124 0.518114 0.707436 0.706802 C 0.518748 0.89549 0.267164 1.001627 -0.000143728 1.001627 C -0.263521 1.001627 -0.519036 0.89549 -0.707724 0.706802 C -0.896412 0.518114 -0.998618 0.26653 -0.998618 -0.000778415 C -0.998618 -0.264155 -0.896412 -0.519671 -0.707724 -0.708359 C -0.519036 -0.893116 -0.263521 -0.999253 -0.000143728 -0.999253 Z M -0.000143728 -0.999253 " transform="matrix(0.993704, 0, 0, -0.993704, 134.359518, 77.108601)"/>
<path fill="none" stroke-width="0.6" stroke-linecap="square" stroke-linejoin="miter" stroke="rgb(0%, 0%, 0%)" stroke-opacity="1" stroke-miterlimit="10" d="M 23.518339 20.661089 L 23.518339 94.650385 " transform="matrix(0.993704, 0, 0, -0.993704, 0.000833333, 106.644281)"/>
<path fill="none" stroke-width="0.6" stroke-linecap="square" stroke-linejoin="miter" stroke="rgb(0%, 0%, 0%)" stroke-opacity="1" stroke-miterlimit="10" d="M 23.518339 20.661089 L 139.962443 20.661089 " transform="matrix(0.993704, 0, 0, -0.993704, 0.000833333, 106.644281)"/>
<path fill="none" stroke-width="0.9" stroke-linecap="square" stroke-linejoin="round" stroke="rgb(13.33313%, 59.214783%, 36.077881%)" stroke-opacity="1" stroke-miterlimit="10" d="M 53.673046 100.1302 L 59.471272 100.1302 " transform="matrix(0.993704, 0, 0, -0.993704, 0.000833333, 106.644281)"/>
<path fill-rule="nonzero" fill="rgb(13.33313%, 59.214783%, 36.077881%)" fill-opacity="1" stroke-width="1" stroke-linecap="butt" stroke-linejoin="round" stroke="rgb(13.33313%, 59.214783%, 36.077881%)" stroke-opacity="1" stroke-miterlimit="10" d="M 56.570193 99.131725 C 56.837501 99.131725 57.089085 99.233931 57.277773 99.42262 C 57.466461 99.611308 57.572598 99.862892 57.572598 100.1302 C 57.572598 100.393577 57.466461 100.649092 57.277773 100.83778 C 57.089085 101.026468 56.837501 101.128674 56.570193 101.128674 C 56.306816 101.128674 56.051301 101.026468 55.862613 100.83778 C 55.677856 100.649092 55.571719 100.393577 55.571719 100.1302 C 55.571719 99.862892 55.677856 99.611308 55.862613 99.42262 C 56.051301 99.233931 56.306816 99.131725 56.570193 99.131725 Z M 56.570193 99.131725 " transform="matrix(0.993704, 0, 0, -0.993704, 0.000833333, 106.644281)"/>
<g fill="rgb(0%, 0%, 0%)" fill-opacity="1">
<use xlink:href="#glyph-3-0" x="60.826815" y="8.618516"/>
</g>
<g fill="rgb(0%, 0%, 0%)" fill-opacity="1">
<use xlink:href="#glyph-4-0" x="64.180322" y="8.618516"/>
</g>
<g fill="rgb(0%, 0%, 0%)" fill-opacity="1">
<use xlink:href="#glyph-4-1" x="70.081044" y="8.618516"/>
</g>
<g fill="rgb(0%, 0%, 0%)" fill-opacity="1">
<use xlink:href="#glyph-4-2" x="73.716336" y="8.618516"/>
</g>
<g fill="rgb(0%, 0%, 0%)" fill-opacity="1">
<use xlink:href="#glyph-4-3" x="75.159948" y="8.618516"/>
</g>
<g fill="rgb(0%, 0%, 0%)" fill-opacity="1">
<use xlink:href="#glyph-4-4" x="78.795239" y="8.618516"/>
</g>
<path fill="none" stroke-width="0.8" stroke-linecap="butt" stroke-linejoin="round" stroke="rgb(44.999695%, 44.999695%, 44.999695%)" stroke-opacity="1" stroke-dasharray="2.88 1.92" stroke-miterlimit="10" d="M 87.271309 100.1302 L 93.069535 100.1302 " transform="matrix(0.993704, 0, 0, -0.993704, 0.000833333, 106.644281)"/>
<g fill="rgb(0%, 0%, 0%)" fill-opacity="1">
<use xlink:href="#glyph-3-1" x="94.215259" y="8.727203"/>
</g>
<g fill="rgb(0%, 0%, 0%)" fill-opacity="1">
<use xlink:href="#glyph-4-5" x="100.643656" y="8.727203"/>
</g>
<g fill="rgb(0%, 0%, 0%)" fill-opacity="1">
<use xlink:href="#glyph-3-2" x="102.872818" y="8.727203"/>
</g>
<g fill="rgb(0%, 0%, 0%)" fill-opacity="1">
<use xlink:href="#glyph-4-6" x="106.494159" y="8.727203"/>
</g>
<path fill-rule="nonzero" fill="rgb(0%, 0%, 0%)" fill-opacity="1" d="M 99.726562 6.640625 L 99.570312 7.453125 C 99.828125 7.453125 100.027344 7.554688 100.167969 7.757812 C 100.304688 7.960938 100.335938 8.246094 100.269531 8.605469 C 100.199219 8.96875 100.054688 9.25 99.835938 9.453125 C 99.621094 9.652344 99.382812 9.75 99.121094 9.75 L 98.96875 10.539062 L 98.605469 10.539062 L 98.761719 9.75 C 98.496094 9.75 98.296875 9.652344 98.164062 9.453125 C 98.023438 9.25 97.988281 8.96875 98.058594 8.605469 C 98.128906 8.246094 98.273438 7.960938 98.496094 7.757812 C 98.707031 7.554688 98.945312 7.453125 99.207031 7.453125 L 99.367188 6.640625 Z M 99.1875 9.429688 C 99.332031 9.429688 99.46875 9.367188 99.597656 9.230469 C 99.734375 9.078125 99.832031 8.871094 99.886719 8.605469 C 99.9375 8.339844 99.917969 8.132812 99.839844 7.980469 C 99.761719 7.84375 99.648438 7.777344 99.503906 7.777344 Z M 98.824219 9.429688 L 99.144531 7.777344 C 98.996094 7.777344 98.859375 7.84375 98.734375 7.980469 C 98.589844 8.132812 98.492188 8.339844 98.441406 8.605469 C 98.390625 8.871094 98.40625 9.078125 98.492188 9.230469 C 98.5625 9.367188 98.671875 9.429688 98.824219 9.429688 Z M 98.824219 9.429688 "/>
<path fill-rule="nonzero" fill="rgb(100%, 100%, 100%)" fill-opacity="1" d="M 81.300781 51.808594 L 136.199219 51.808594 C 136.96875 51.808594 137.351562 51.425781 137.351562 50.65625 L 137.351562 43.152344 C 137.351562 42.382812 136.96875 42 136.199219 42 L 81.300781 42 C 80.53125 42 80.148438 42.382812 80.148438 43.152344 L 80.148438 50.65625 C 80.148438 51.425781 80.53125 51.808594 81.300781 51.808594 Z M 81.300781 51.808594 "/>
<g clip-path="url(#clip-8)">
<path fill="none" stroke-width="0.5" stroke-linecap="butt" stroke-linejoin="miter" stroke="rgb(64.99939%, 64.99939%, 64.99939%)" stroke-opacity="1" stroke-miterlimit="10" d="M 81.81508 55.183137 L 137.061364 55.183137 C 137.835772 55.183137 138.22101 55.568375 138.22101 56.342782 L 138.22101 63.894235 C 138.22101 64.668642 137.835772 65.05388 137.061364 65.05388 L 81.81508 65.05388 C 81.040673 65.05388 80.655435 64.668642 80.655435 63.894235 L 80.655435 56.342782 C 80.655435 55.568375 81.040673 55.183137 81.81508 55.183137 Z M 81.81508 55.183137 " transform="matrix(0.993704, 0, 0, -0.993704, 0.000833333, 106.644281)"/>
</g>
<path fill-rule="nonzero" fill="rgb(13.33313%, 59.214783%, 36.077881%)" fill-opacity="1" stroke-width="0.4" stroke-linecap="butt" stroke-linejoin="round" stroke="rgb(34.999084%, 34.999084%, 34.999084%)" stroke-opacity="1" stroke-miterlimit="10" d="M 85.294016 58.894002 C 85.718564 58.894002 86.123457 59.063035 86.426144 59.361791 C 86.7249 59.660547 86.893933 60.069371 86.893933 60.493919 C 86.893933 60.918467 86.7249 61.32336 86.426144 61.622116 C 86.123457 61.924803 85.718564 62.093836 85.294016 62.093836 C 84.869467 62.093836 84.464574 61.924803 84.161887 61.622116 C 83.863131 61.32336 83.694098 60.918467 83.694098 60.493919 C 83.694098 60.069371 83.863131 59.660547 84.161887 59.361791 C 84.464574 59.063035 84.869467 58.894002 85.294016 58.894002 Z M 85.294016 58.894002 " transform="matrix(0.993704, 0, 0, -0.993704, 0.000833333, 106.644281)"/>
<g fill="rgb(0%, 0%, 0%)" fill-opacity="1">
<use xlink:href="#glyph-4-7" x="89.656779" y="48.549762"/>
<use xlink:href="#glyph-4-8" x="93.31659" y="48.549762"/>
<use xlink:href="#glyph-4-9" x="94.918838" y="48.549762"/>
</g>
<g fill="rgb(0%, 0%, 0%)" fill-opacity="1">
<use xlink:href="#glyph-4-10" x="97.927946" y="48.549762"/>
</g>
<g fill="rgb(0%, 0%, 0%)" fill-opacity="1">
<use xlink:href="#glyph-4-11" x="99.729084" y="48.549762"/>
<use xlink:href="#glyph-4-12" x="103.677069" y="48.549762"/>
<use xlink:href="#glyph-4-13" x="106.887328" y="48.549762"/>
<use xlink:href="#glyph-4-3" x="108.829621" y="48.549762"/>
<use xlink:href="#glyph-4-14" x="112.495196" y="48.549762"/>
<use xlink:href="#glyph-4-15" x="114.327983" y="48.549762"/>
<use xlink:href="#glyph-4-14" x="119.15778" y="48.549762"/>
<use xlink:href="#glyph-4-16" x="120.990567" y="48.549762"/>
<use xlink:href="#glyph-4-17" x="124.996187" y="48.549762"/>
<use xlink:href="#glyph-4-18" x="128.638707" y="48.549762"/>
</g>
<g fill="rgb(0%, 0%, 0%)" fill-opacity="1">
<use xlink:href="#glyph-4-19" x="131.756974" y="48.549762"/>
</g>
</svg>
